PathFileType	4	(X/Y/Z)	Patient4_TMGait_0pt3_02_left_21.trc.trc
DataRate	CameraRate	NumFrames	NumMarkers	Units	OrigDataRate	OrigDataStartFrame	OrigNumFrames
50.909090909091	50.909090909091	5	33	mm	50.909090909091	89	       141
Frame#	Time	Sacral			L.Shoulder			Chest			R.Shoulder			Neck			R.ASIS			L.ASIS			R.Thigh.Superior			R.Thigh.Lateral			R.Thigh.Inferior			R.Patella			L.Thigh.Superior			L.Thigh.Lateral			L.Thigh.Inferior			L.Patella			L.Shank.Superior			L.Shank.Lateral			L.Shank.Inferior			R.Shank.Superior			R.Shank.Lateral			R.Shank.Inferior			R.Heel			R.Midfoot.Superior			R.Midfoot.Lateral			R.Toe			L.Heel			L.Midfoot.Lateral			L.Midfoot.Superior			L.Toe			L.Elbow			L.Wrist			R.Elbow			R.Wrist			
		X1	Y1	Z1	X2	Y2	Z2	X3	Y3	Z3	X4	Y4	Z4	X5	Y5	Z5	X6	Y6	Z6	X7	Y7	Z7	X8	Y8	Z8	X9	Y9	Z9	X10	Y10	Z10	X11	Y11	Z11	X12	Y12	Z12	X13	Y13	Z13	X14	Y14	Z14	X15	Y15	Z15	X16	Y16	Z16	X17	Y17	Z17	X18	Y18	Z18	X19	Y19	Z19	X20	Y20	Z20	X21	Y21	Z21	X22	Y22	Z22	X23	Y23	Z23	X24	Y24	Z24	X25	Y25	Z25	X26	Y26	Z26	X27	Y27	Z27	X28	Y28	Z28	X29	Y29	Z29	X30	Y30	Z30	X31	Y31	Z31	X32	Y32	Z32	X33	Y33	Z33	

89	42.818571428571	769.052521240977	1000.275571308770	435.803161907760	982.450948714894	1436.039630649572	303.776431043718	1048.234487483659	1359.902677715719	479.049084788640	932.267030174695	1428.104401243536	635.081006927028	931.750362922340	1490.825083508407	457.850583610438	982.971732074993	936.636947191550	584.450768077219	1003.891408977804	958.692231805172	310.613601628003	1047.906119489285	749.865617796409	550.793677632911	979.290197944179	631.824530226696	609.613171213838	1064.910344240288	588.890217276507	531.484352539126	1076.352976463745	501.624040730125	540.469123445405	1002.572675667766	724.459309660617	333.905686343260	891.658503044417	625.800686634184	264.829560400346	952.395953934543	532.420061818720	330.011416070983	935.950350383795	458.241218446190	333.493902444817	884.192866180168	398.600302783688	323.784091187547	763.318256472547	319.711893194047	268.660084319889	775.025513909975	194.934451205726	333.729142701427	1053.850245556194	410.331922926285	549.827800197217	988.136154965345	303.812411632780	613.425803129386	1038.590739602369	210.399210033829	554.620061644718	913.459496794888	41.912109144214	529.210153813010	1084.426304682234	98.619694770631	562.837523393546	997.945999975059	36.297230965015	602.130831342843	1204.896312653179	50.673467217585	587.968533978344	607.022592068592	69.942691430195	366.657302528417	682.067966731246	51.353599752560	290.385160247554	774.003046411131	100.769126486164	317.288049178616	891.638979245319	37.023273439076	294.450009254697	1130.574806915967	1160.297813657182	129.063867904580	1389.335789252585	1142.441864265942	151.056839021205	790.468906567522	1105.788736866269	716.925260940657	772.268293873368	846.426603627143	740.713978236017	
90	42.838214285714	771.268978411151	1000.868999230284	442.462615654428	982.029113303464	1437.123557386208	307.705233321450	1049.798815536097	1361.284876116702	482.382078777639	935.155436897587	1429.217361847430	639.428565978034	932.678309838458	1491.903406511570	462.103857364868	986.619821884416	937.935425075571	589.121716864927	1005.052830966988	959.760441740286	315.202367304272	1049.664819599376	749.425357436855	554.835625976257	979.980090500424	631.840247570106	613.093874675898	1064.700781005644	588.327811884082	534.367580019187	1075.379806111676	500.802376557567	542.600906479273	1006.302678428767	725.778800563087	337.790719120989	897.001219112187	626.091074463781	268.562744659957	959.978611673444	532.790553955694	332.670555408109	943.939847768355	457.299455365756	334.736759548157	889.736869208824	398.706968920007	325.130792703092	766.249296316697	323.790307831235	270.496134259792	775.315611941849	197.790554314712	333.402966440505	1051.852264612874	409.756793264615	551.465884099350	985.469261068877	303.509627611027	614.725895847822	1034.499956257231	209.933887405962	555.014633782737	907.870736761782	41.963233608226	529.284000940852	1078.982781236930	98.440275722458	562.747108256874	992.358762062761	36.421787459351	602.166528904318	1199.431644956057	50.101645684872	587.921443794519	604.081141000903	78.312406932516	366.290251440150	678.001849983903	56.057849778430	290.181074589636	771.716180278905	101.988759585867	316.383865256277	885.932493036990	36.607911534617	294.473605014730	1125.895851478309	1157.834576241892	133.290556675862	1384.523840885544	1136.808597823310	153.901855157631	797.742043658124	1105.359026092400	724.463919816162	783.705583880226	845.863996895775	749.552836146974	
91	42.857857142857	773.291997009343	1001.293165580123	449.222963860684	981.366450782835	1437.923067501336	311.386831119786	1051.237458788849	1362.511853248093	485.454007837013	938.024493446194	1430.263282741156	643.541716832849	933.515186560271	1492.831379294529	466.088272916347	990.126031141478	939.066544877897	593.806704065489	1005.947226535165	960.634183051168	319.846550516303	1051.234505527995	748.863205098584	558.860610364580	980.479388786856	631.717318985206	616.576921364535	1064.274958736632	587.673161266343	537.249358576907	1074.165662660228	499.908465887611	544.745836937016	1010.652776933412	727.223846998285	341.821059220036	903.642708414912	626.178421264839	272.298388460970	969.176910488463	533.225302563505	335.441714608849	953.670449892154	456.334938741740	335.983668956863	896.938530838915	398.748616145233	326.457957656834	770.772852307444	328.262444783854	272.337930373642	776.777295875819	201.158231770577	333.063991625347	1049.664767533215	409.117065059292	553.113638581405	982.665251404971	303.123075199410	616.012456576632	1030.298962227433	209.438975688329	555.398728369649	902.269535907532	42.047970985981	529.315504325136	1073.495366106789	98.264152464422	562.680452844993	986.735714574440	36.545961024088	602.176405125924	1193.936634152438	49.436843389778	587.956350259200	602.146883792540	88.323122668479	365.947361048813	674.521480072165	61.967627952704	289.989527318520	770.100634241199	103.582098275307	315.463040292588	880.086968323612	36.049326765232	294.545093995210	1120.264041660206	1154.432128429210	137.745215737301	1378.718819657148	1129.438965161513	156.933547289573	805.406173794268	1104.729083145485	731.848455415480	796.008347903952	845.146378793403	758.025451318738	
92	42.877500000000	775.096746769967	1001.500585595670	456.070350050057	980.458045376058	1438.372901369193	314.814067755850	1052.518928631836	1363.521200909310	488.264405166047	940.827328585151	1431.186290617840	647.407771641496	934.245543494300	1493.551073704765	469.793601023804	993.471823303753	939.984961231825	598.483667100349	1006.543771013860	961.256151878892	324.523283444380	1052.705447624267	748.220373994070	562.815123462187	980.952798892419	631.459123809758	620.043075112759	1063.808345653553	586.950214368129	540.110638291115	1072.914132841211	498.935059956111	546.903463672778	1015.595645331404	728.790002920612	345.997050169364	911.557803519058	626.098312602708	276.026537924332	979.909614415902	533.787110272778	338.359815137612	965.081452855489	455.440655732629	337.316382605619	905.797205111287	398.771862954429	327.828127495579	776.951048492231	333.154597364924	274.205177794933	779.475384282857	205.108591276506	332.796775140920	1047.451800162063	408.393339438277	554.768198853428	979.849675950477	302.658296011687	617.298376230454	1026.060777279758	208.892868816500	555.773866945255	896.633600155273	42.165958948291	529.313213594147	1067.965258871123	98.074561552950	562.630815014448	981.061000479281	36.664755978172	602.167836065741	1188.402106620806	48.656433658032	588.054822244160	601.401040040491	100.088315713797	365.705226240491	671.766237334386	69.275177474226	289.869321651187	769.212143103324	105.695518420894	314.611489297325	874.116301068926	35.315293803219	294.664980353059	1113.645412512581	1150.077324007782	142.443036906785	1371.832882400971	1120.210745346976	160.156843724547	813.447235710587	1103.830661388272	739.028374346993	809.298572569118	844.233618098484	766.105288634554	
93	42.897142857143	776.660426842677	1001.462252526756	462.980384941843	979.301013544852	1438.430952259151	317.985773187491	1053.616028853368	1364.263879555951	490.814194511388	943.528611357038	1431.940347251766	651.020063563882	934.857388837705	1494.019690077637	473.218405026056	996.636708409668	940.659783064523	603.121427702932	1006.818515781701	961.588301843458	329.195293897591	1054.148609550918	747.530139708803	566.671963645031	981.521580838559	631.067374278317	623.477359822325	1063.450048744523	586.177404053503	542.948357016516	1071.801137184144	497.875093230712	549.082785634155	1021.073305626325	730.494003557074	350.305190883580	920.650053762256	625.918760643951	279.739402961841	992.016621196004	534.562640115111	341.448604096690	978.034182171757	454.734147309647	338.819619914637	916.236118596038	398.847969040081	329.313033718316	784.771479764666	338.486185054957	276.131158416404	783.429407706953	209.694464450136	332.702051867014	1045.349953130538	407.571843797739	556.433188444241	977.118657440294	302.123353376418	618.594041367875	1021.847816461594	208.284406723180	556.149805150318	890.953130324787	42.311863245617	529.289854551886	1062.396278992428	97.869049464205	562.597880649132	975.332115598787	36.775072175190	602.150045143341	1182.824385497246	47.775475969629	588.198406632853	601.995357194197	113.610143101759	365.668733396476	669.878216095374	78.105950791441	289.899087432014	769.100877299394	108.480007935429	313.930195898737	868.089944522612	34.399507147118	294.826297259719	1106.039700907760	1144.812340936636	147.400068568037	1363.776163734256	1109.017237942368	163.572296994738	821.858609465121	1102.619119485606	745.962074954174	823.695305253488	843.120084603938	773.769306040794	
